<svg width="16" height="16" fill="none" xmlns="http://www.w3.org/2000/svg"><path d="M2.24 10.6s-.023.044 1.431-.89c.738-.379.626-.89.626-.89s-.223-.467-.537-.89c-.42-.905-.231-1.516.105-1.916.05-.035.104-.078.16-.13.3-.322.7-.436.984-.446-.028-.001.092-.002.004 0 .177.008.338.053.474.11.56.303 1.337 1 .693 2.382-.314.423-.538.89-.538.89s-.107.494.592.87l-1.22.946-.005.003-1.327 1.028h-1.71s-.023-.155 0-.623c0-.333.268-.444.268-.444Z" fill="#fff"/><path d="M7.615 9.77c-2.132 1.35-2.1 1.285-2.1 1.285s-.393.16-.393.643c-.032.675 0 .9 0 .9H13.93s.034-.225 0-.9c0-.482-.394-.643-.394-.643s.033.064-2.107-1.285c-1.087-.547-.922-1.286-.922-1.286s.33-.675.79-1.285c.948-2.005-.207-3.012-1.027-3.448-.549-.217-1.372-.316-2.134.491a2 2 0 0 1-.236.19c-.493.577-.768 1.46-.153 2.767.46.61.788 1.285.788 1.285s.164.74-.919 1.286Z" fill="#fff"/></svg>