<svg width="16" height="16" fill="none" xmlns="http://www.w3.org/2000/svg"><path d="m12.949 10.839 1.268 1.032h1.747s.023-.167 0-.668c0-.358-.274-.478-.274-.478s.023.048-1.462-.954c-.754-.406-.64-.954-.64-.954s.229-.501.549-.955c.43-.973.234-1.628-.11-2.057a1.455 1.455 0 0 1-.161-.138c-.307-.347-.627-.465-.917-.475l-.092-.002c-.18.008-.343.056-.482.116-.572.325-1.368 1.073-.71 2.556.32.454.55.955.55.955s.106.528-.607.931l1.249 1.016.092.075ZM2.097 7.729c.322.446.551.94.551.94s.115.54-.643.94c-1.492.987-1.47.94-1.47.94s-.275.118-.275.47c-.023.494 0 .659 0 .659h1.757l1.274-1.017.003-.002.085-.068.005-.003 1.255-1.001c-.716-.397-.61-.918-.61-.918s.23-.494.553-.94c.662-1.461-.139-2.197-.714-2.518a1.416 1.416 0 0 0-.484-.115h-.005c-.028-.001-.057.002-.085.002H3.29c-.291.01-.613.127-.922.469-.056.055-.11.1-.16.136-.348.422-.544 1.067-.112 2.026Z" fill="#fff"/><path d="M6.056 9.673C3.866 11.098 3.9 11.03 3.9 11.03s-.404.17-.404.68c-.034.712 0 .95 0 .95h9.044s.034-.238 0-.95a.729.729 0 0 0-.406-.68s.034.069-2.164-1.357c-1.115-.578-.946-1.358-.946-1.358s.338-.713.811-1.359c.85-1.848.054-2.893-.722-3.435-.52-.249-1.59-.578-2.524.312a2.098 2.098 0 0 1-.242.2c-.506.61-.789 1.543-.157 2.923.472.646.809 1.359.809 1.359s.168.78-.943 1.358Z" fill="#fff"/></svg>